<svg xmlns="http://www.w3.org/2000/svg" xmlns:xlink="http://www.w3.org/1999/xlink" width="500" height="500" viewBox="0 0 500 500">
  <defs>
    <clipPath id="clip-Web_1920_1">
      <rect width="500" height="500"/>
    </clipPath>
  </defs>
  <g id="Web_1920_1" data-name="Web 1920 – 1" clip-path="url(#clip-Web_1920_1)">
    <rect width="500" height="500" fill="#f9e0ae"/>
    <text id="NCS" transform="translate(249 303)" fill="#f26e00" stroke="#682c0e" stroke-width="1" font-size="167" font-family="Chalkboard"><tspan x="-152.883" y="0">NCS</tspan></text>
    <line id="Line_1" data-name="Line 1" x2="129.492" y2="55.465" transform="translate(96.5 65.5)" fill="none" stroke="#682c0e" stroke-width="2"/>
    <line id="Line_2" data-name="Line 2" x2="72" y2="30" transform="translate(96.5 82.5)" fill="none" stroke="#682c0e" stroke-width="2"/>
    <line id="Line_3" data-name="Line 3" x2="66" y2="26" transform="translate(96.5 103.5)" fill="none" stroke="#682c0e" stroke-width="2"/>
    <line id="Line_4" data-name="Line 4" x2="119" y2="49" transform="translate(96.5 124.5)" fill="none" stroke="#682c0e" stroke-width="2"/>
    <line id="Line_5" data-name="Line 5" x2="139" y2="62" transform="translate(96.5 319.5)" fill="none" stroke="#682c0e" stroke-width="2"/>
    <line id="Line_6" data-name="Line 6" x2="140" y2="62" transform="translate(96.5 336.5)" fill="none" stroke="#682c0e" stroke-width="2"/>
    <line id="Line_7" data-name="Line 7" x2="140" y2="63" transform="translate(96.5 352.5)" fill="none" stroke="#682c0e" stroke-width="2"/>
    <line id="Line_8" data-name="Line 8" x2="140" y2="62" transform="translate(96.5 367.5)" fill="none" stroke="#682c0e" stroke-width="2"/>
    <line id="Line_9" data-name="Line 9" y1="48" x2="136" transform="translate(266.5 72.5)" fill="none" stroke="#682c0e" stroke-width="2"/>
    <line id="Line_10" data-name="Line 10" y1="44" x2="136" transform="translate(266.5 111.5)" fill="none" stroke="#682c0e" stroke-width="2"/>
    <line id="Line_11" data-name="Line 11" y1="46" x2="136" transform="translate(266.5 93.5)" fill="none" stroke="#682c0e" stroke-width="2"/>
    <line id="Line_12" data-name="Line 12" y1="42" x2="136" transform="translate(266.5 127.5)" fill="none" stroke="#682c0e" stroke-width="2"/>
    <line id="Line_13" data-name="Line 13" y1="62" x2="136" transform="translate(266.5 319.5)" fill="none" stroke="#682c0e" stroke-width="2"/>
    <line id="Line_14" data-name="Line 14" y1="40" x2="87" transform="translate(315.5 338.5)" fill="none" stroke="#682c0e" stroke-width="2"/>
    <line id="Line_15" data-name="Line 15" y1="41" x2="87" transform="translate(315.5 354.5)" fill="none" stroke="#682c0e" stroke-width="2"/>
    <line id="Line_16" data-name="Line 16" y1="62" x2="136" transform="translate(266.5 370.5)" fill="none" stroke="#682c0e" stroke-width="2"/>
    <g id="Path_3" data-name="Path 3" transform="matrix(0.891, 0.454, -0.454, 0.891, 181, 111.071)" fill="#682c0e">
      <path d="M 9.944008827209473 35.15727233886719 L 8.976993560791016 34.19025802612305 C 9.054391860961914 34.01889419555664 9.299909591674805 33.78708648681641 9.656479835510254 33.78708648681641 C 9.656554222106934 33.78708648681641 9.656606674194336 33.78708648681641 9.656682014465332 33.78708648681641 C 10.0316219329834 33.78718566894531 10.3169116973877 34.04358673095703 10.35045146942139 34.41062545776367 C 10.38575553894043 34.79702758789062 10.12760353088379 35.07806015014648 9.944008827209473 35.15727233886719 Z M 10.66745281219482 33.13660049438477 L 1.035297155380249 4.313451766967773 C 1.197911739349365 4.163388252258301 1.909151315689087 3.813366651535034 3.798791646957397 3.813366651535034 L 3.825011730194092 3.813366651535034 L 3.851191759109497 3.811996698379517 L 43.17399597167969 1.748638868331909 L 52.49749374389648 31.08384895324707 L 10.66745281219482 33.13660049438477 Z M 53.85927581787109 33.00369262695312 C 53.67566680908203 32.92446899414062 53.41751480102539 32.64340209960938 53.452880859375 32.2569580078125 C 53.48647308349609 31.8898868560791 53.77184295654297 31.63350677490234 54.1468505859375 31.63350677490234 C 54.50344467163086 31.63350677490234 54.74895095825195 31.86532783508301 54.82630920410156 32.03665924072266 L 53.85927581787109 33.00369262695312 Z M 44.03582000732422 0.9999967217445374 C 43.63425064086914 0.9999967217445374 43.26937103271484 0.7250467538833618 43.20515060424805 0.3740467429161072 C 43.14717102050781 0.05717673152685165 43.35419082641602 -0.2016532719135284 43.52592086791992 -0.2666732668876648 L 44.81689453125 0.3578299880027771 L 44.83906555175781 0.5007874965667725 C 44.75956726074219 0.7002835273742676 44.48215866088867 0.9999967217445374 44.03582000732422 0.9999967217445374 Z" stroke="none"/>
      <path d="M 42.45495223999023 2.787738800048828 L 3.903583526611328 4.810617446899414 L 3.851222991943359 4.813365936279297 L 3.798782348632812 4.813365936279297 C 3.110050201416016 4.813365936279297 2.624614715576172 4.862171173095703 2.292152404785156 4.919395446777344 L 11.37561416625977 32.10064315795898 L 51.1509895324707 30.14872169494629 L 42.45495223999023 2.787738800048828 M 44.03582000732422 0 C 44.20003509521484 8.0108642578125e-05 44.34866333007812 0.4910964965820312 43.8800048828125 0.6685371398925781 L 43.85086059570312 0.5768356323242188 C 43.85086059570312 0.1478652954101562 43.94567108154297 -4.57763671875e-05 44.03582000732422 0 Z M 43.8800048828125 0.6685371398925781 L 53.84399032592773 32.01897811889648 L 9.959293365478516 34.17255783081055 L 0 4.37049674987793 C 0 2.98780632019043 2.4359130859375 2.813365936279297 3.798782348632812 2.813365936279297 L 43.47344207763672 0.7315483093261719 C 43.64330291748047 0.7315483093261719 43.77664947509766 0.7076683044433594 43.8800048828125 0.6685371398925781 Z M 53.84399032592773 32.01897811889648 C 54.75259780883789 32.01897811889648 54.44972229003906 32.63351058959961 54.1468505859375 32.63351058959961 C 53.99542999267578 32.63351058959961 53.84399032592773 32.4798469543457 53.84399032592773 32.01897811889648 Z M 9.959293365478516 34.17255783081055 C 9.959293365478516 34.63351440429688 9.807880401611328 34.78709030151367 9.656429290771484 34.78709030151367 C 9.353584289550781 34.78709030151367 9.050762176513672 34.17255783081055 9.959293365478516 34.17255783081055 Z" stroke="none" fill="#682c0e"/>
    </g>
    <g id="Path_2" data-name="Path 2" transform="matrix(0.899, -0.438, 0.438, 0.899, 258.5, 393.847)" fill="#682c0e">
      <path d="M 36.65092086791992 29.60482788085938 L 2.617920398712158 29.60482788085938 C 1.765222668647766 29.60482788085938 1.064476728439331 28.95761871337891 1.004210114479065 28.13995742797852 L 8.057591438293457 1.554237365722656 L 41.36772155761719 1.362558364868164 C 42.03357696533203 1.362603664398193 42.71188735961914 1.383311867713928 43.16463851928711 1.532537817955017 C 43.43218612670898 1.62071967124939 43.48968124389648 1.695230722427368 43.50203704833984 1.789213418960571 L 38.28829956054688 27.8291072845459 L 38.26884078979492 27.92629814147949 L 38.26884078979492 28.02542686462402 C 38.26884078979492 28.89630699157715 37.54304122924805 29.60482788085938 36.65092086791992 29.60482788085938 Z M 7.003230571746826 0.9999977946281433 C 6.628500461578369 0.9999977946281433 6.370427131652832 0.73061203956604 6.300227165222168 0.5455611348152161 L 7.26115608215332 -0.4153681099414825 C 7.429419994354248 -0.3204993903636932 7.637707710266113 -0.05217901989817619 7.597160339355469 0.3118777871131897 C 7.565991878509521 0.5917873978614807 7.398263931274414 0.8346510529518127 7.162783145904541 0.9812296628952026 C 7.122083187103271 0.9913986921310425 7.068398475646973 0.9999977946281433 7.003230571746826 0.9999977946281433 Z" stroke="none"/>
      <path d="M 41.37153625488281 2.362560272216797 L 8.828048706054688 2.549827575683594 L 2.025463104248047 28.19024276733398 C 2.101356506347656 28.4296989440918 2.338237762451172 28.60482788085938 2.617919921875 28.60482788085938 L 36.65092086791992 28.60482788085938 C 36.99164199829102 28.60482788085938 37.26884078979492 28.34490776062012 37.26884078979492 28.02542877197266 L 37.26884078979492 27.82717704772949 L 37.30776214599609 27.63277816772461 L 42.36061096191406 2.39643669128418 C 42.13032913208008 2.376224517822266 41.81178283691406 2.362680435180664 41.37153625488281 2.362560272216797 M 7.003223419189453 -1.9073486328125e-06 C 7.183422088623047 -1.9073486328125e-06 7.287128448486328 0.1771965026855469 7.287128448486328 0.5586585998535156 C 6.492881774902344 0.5586585998535156 6.571239471435547 0.1287689208984375 6.648422241210938 0.1288242340087891 C 6.654697418212891 0.1288299560546875 6.660980224609375 0.1316757202148438 6.666770935058594 0.1378269195556641 C 6.796836853027344 0.04717254638671875 6.910205841064453 -1.9073486328125e-06 7.003223419189453 -1.9073486328125e-06 Z M 41.36553192138672 0.3625583648681641 C 42.81137084960938 0.3625583648681641 44.50542068481445 0.4468879699707031 44.50542068481445 1.871448516845703 L 39.26884078979492 28.02542877197266 C 39.26884078979492 29.44998741149902 38.09674835205078 30.60482788085938 36.65092086791992 30.60482788085938 L 2.617919921875 30.60482788085938 C 1.172080993652344 30.60482788085938 0 29.44998741149902 0 28.02542877197266 L 7.287128448486328 0.5586585998535156 L 41.36553192138672 0.3625583648681641 Z" stroke="none" fill="#682c0e"/>
    </g>
    <g id="Path_1" data-name="Path 1" transform="translate(34 9.518)" fill="rgba(249,224,174,0)" opacity="0.995">
      <path d="M 222.3714599609375 474.8379211425781 L 5.784314632415771 378.8584289550781 L 23.26089096069336 301.6576538085938 L 23.35162544250488 301.2568359375 L 23.37569236755371 300.8466491699219 L 28.97175788879395 205.4943084716797 L 28.98855781555176 205.2087097167969 L 28.97262573242188 204.9231109619141 L 23.37655830383301 104.5268478393555 L 23.36009216308594 104.232048034668 L 23.30909156799316 103.9412460327148 L 6.420118808746338 7.66049337387085 L 220.7200927734375 85.73538208007812 L 222.4826965332031 86.37751007080078 L 224.2326202392578 85.70184326171875 L 426.1444396972656 7.742170333862305 L 412.8982849121094 99.43011474609375 L 412.8672180175781 99.64504241943359 L 412.8548889160156 99.86184692382812 L 406.894287109375 204.9181823730469 L 406.8774108886719 205.2157745361328 L 406.8960266113281 205.5133056640625 L 412.8566284179688 300.8656311035156 L 412.8744201660156 301.1501159667969 L 412.9244384765625 301.4306335449219 L 426.7201232910156 378.86767578125 L 222.3714599609375 474.8379211425781 Z" stroke="none"/>
      <path d="M 12.84024047851562 15.32101440429688 L 28.23391723632812 103.0773620605469 L 28.3359375 103.6589965820312 L 28.3687744140625 104.2486267089844 L 33.96484375 204.6448364257812 L 33.9967041015625 205.216064453125 L 33.96319580078125 205.7872009277344 L 28.36712646484375 301.1395568847656 L 28.31893920898438 301.9600830078125 L 28.13748168945312 302.7616577148438 L 11.568603515625 375.9528198242188 L 222.3110961914062 469.34228515625 L 421.1253662109375 375.9712524414062 L 408.0018615722656 302.3076171875 L 407.9019165039062 301.7464904785156 L 407.8663635253906 301.1775512695312 L 401.9057922363281 205.8251953125 L 401.8685607910156 205.2301330566406 L 401.90234375 204.6349182128906 L 407.9496459960938 98.7152099609375 L 419.9740295410156 15.48440551757812 L 226.0335693359375 90.3662109375 L 222.5336456298828 91.71755981445312 L 219.0084991455078 90.43328857421875 L 12.84024047851562 15.32101440429688 M 0 0 L 222.431640625 81.03741455078125 L 432.3148498535156 0 L 417.8468627929688 100.1450500488281 L 411.8862915039062 205.2013549804688 L 417.8468627929688 300.5537109375 L 432.3148498535156 381.7641296386719 L 222.431640625 480.3335571289062 L 0 381.7641296386719 L 18.38427734375 300.5537109375 L 23.9803466796875 205.2013549804688 L 18.38427734375 104.8051452636719 L 0 0 Z" stroke="none" fill="#682c0e"/>
    </g>
  </g>
</svg>
