<svg xmlns="http://www.w3.org/2000/svg" xmlns:xlink="http://www.w3.org/1999/xlink" width="500" height="500" viewBox="0 0 500 500">
  <defs>
    <clipPath id="clip-Web_1920_1">
      <rect width="500" height="500"/>
    </clipPath>
  </defs>
  <g id="Web_1920_1" data-name="Web 1920 – 1" clip-path="url(#clip-Web_1920_1)">
    <rect width="500" height="500" fill="#f9e0ae"/>
    <g id="WhatsApp_Image_2021-02-13_at_11.32.54_PM" data-name="WhatsApp Image 2021-02-13 at 11.32.54 PM" transform="translate(34 8.518)" fill="rgba(255,255,255,0)" opacity="0.995">
      <path d="M 222.3711700439453 477.8712768554688 L 5.776960849761963 381.2813415527344 L 23.26235771179199 303.5527954101562 L 23.35202407836914 303.1543273925781 L 23.37582397460938 302.74658203125 L 28.97189140319824 206.7909240722656 L 28.98842430114746 206.5071258544922 L 28.97269248962402 206.2232666015625 L 23.37662506103516 105.1917953491211 L 23.36042404174805 104.898796081543 L 23.31002426147461 104.6097259521484 L 6.413586616516113 7.676888465881348 L 220.7105560302734 86.24465942382812 L 222.4829559326172 86.89446258544922 L 224.2425537109375 86.21073150634766 L 426.1495666503906 7.75965690612793 L 412.8976135253906 100.0681991577148 L 412.866943359375 100.2817993164062 L 412.8548278808594 100.4972610473633 L 406.8942260742188 206.2183227539062 L 406.8775634765625 206.5141296386719 L 406.8959045410156 206.8097991943359 L 412.8565063476562 302.7654724121094 L 412.8740844726562 303.0481262207031 L 412.9234313964844 303.3270568847656 L 426.7256469726562 381.2910461425781 L 222.3711700439453 477.8712768554688 Z" stroke="none"/>
      <path d="M 12.82705688476562 15.3536376953125 L 28.2357177734375 103.7510986328125 L 28.33648681640625 104.3292541503906 L 28.36898803710938 104.9152526855469 L 33.96505737304688 205.9467468261719 L 33.99649047851562 206.5144653320312 L 33.96343994140625 207.08203125 L 28.36734008789062 303.0376586914062 L 28.31979370117188 303.8531799316406 L 28.1405029296875 304.6501770019531 L 11.553955078125 378.3829345703125 L 222.3104858398438 472.3695678710938 L 421.1365661621094 378.4021606445312 L 408 304.1986694335938 L 407.9012145996094 303.640869140625 L 407.8660583496094 303.0754699707031 L 401.9054870605469 207.1198120117188 L 401.8687744140625 206.5284729003906 L 401.9021301269531 205.9368896484375 L 407.9483642578125 99.357666015625 L 419.9843444824219 15.51934814453125 L 226.0533599853516 90.87130737304688 L 222.5341339111328 92.23867797851562 L 218.9894256591797 90.93902587890625 L 12.82705688476562 15.3536376953125 M 0 -3.0517578125e-05 L 222.431640625 81.5501708984375 L 432.3148498535156 -3.0517578125e-05 L 417.8468627929688 100.7787475585938 L 411.8862915039062 206.4998168945312 L 417.8468627929688 302.4554443359375 L 432.3148498535156 384.1797485351562 L 222.431640625 483.3728942871094 L 0 384.1797485351562 L 18.38427734375 302.4554443359375 L 23.9803466796875 206.4998168945312 L 18.38427734375 105.4683227539062 L 0 -3.0517578125e-05 Z" stroke="none" fill="#682c0e"/>
    </g>
    <text id="NCS" transform="translate(250 304)" fill="#f26e00" stroke="#682c0e" stroke-width="1" font-size="167" font-family="Chalkboard"><tspan x="-152.883" y="0">NCS</tspan></text>
    <line id="Line_1" data-name="Line 1" x2="129.492" y2="55.465" transform="translate(97.5 66.5)" fill="none" stroke="#682c0e" stroke-width="2"/>
    <line id="Line_2" data-name="Line 2" x2="72" y2="30" transform="translate(97.5 83.5)" fill="none" stroke="#682c0e" stroke-width="2"/>
    <line id="Line_3" data-name="Line 3" x2="66" y2="26" transform="translate(97.5 104.5)" fill="none" stroke="#682c0e" stroke-width="2"/>
    <line id="Line_4" data-name="Line 4" x2="119" y2="49" transform="translate(97.5 125.5)" fill="none" stroke="#682c0e" stroke-width="2"/>
    <line id="Line_5" data-name="Line 5" x2="139" y2="62" transform="translate(97.5 320.5)" fill="none" stroke="#682c0e" stroke-width="2"/>
    <line id="Line_6" data-name="Line 6" x2="140" y2="62" transform="translate(97.5 337.5)" fill="none" stroke="#682c0e" stroke-width="2"/>
    <line id="Line_7" data-name="Line 7" x2="140" y2="63" transform="translate(97.5 353.5)" fill="none" stroke="#682c0e" stroke-width="2"/>
    <line id="Line_8" data-name="Line 8" x2="140" y2="62" transform="translate(97.5 368.5)" fill="none" stroke="#682c0e" stroke-width="2"/>
    <line id="Line_9" data-name="Line 9" y1="48" x2="136" transform="translate(267.5 73.5)" fill="none" stroke="#682c0e" stroke-width="2"/>
    <line id="Line_10" data-name="Line 10" y1="44" x2="136" transform="translate(267.5 112.5)" fill="none" stroke="#682c0e" stroke-width="2"/>
    <line id="Line_11" data-name="Line 11" y1="46" x2="136" transform="translate(267.5 94.5)" fill="none" stroke="#682c0e" stroke-width="2"/>
    <line id="Line_12" data-name="Line 12" y1="42" x2="136" transform="translate(267.5 128.5)" fill="none" stroke="#682c0e" stroke-width="2"/>
    <line id="Line_13" data-name="Line 13" y1="62" x2="136" transform="translate(267.5 320.5)" fill="none" stroke="#682c0e" stroke-width="2"/>
    <line id="Line_14" data-name="Line 14" y1="40" x2="87" transform="translate(316.5 339.5)" fill="none" stroke="#682c0e" stroke-width="2"/>
    <line id="Line_15" data-name="Line 15" y1="41" x2="87" transform="translate(316.5 355.5)" fill="none" stroke="#682c0e" stroke-width="2"/>
    <line id="Line_16" data-name="Line 16" y1="62" x2="136" transform="translate(267.5 371.5)" fill="none" stroke="#682c0e" stroke-width="2"/>
    <g id="Path_3" data-name="Path 3" transform="matrix(0.891, 0.454, -0.454, 0.891, 182, 112.071)" fill="#682c0e">
      <path d="M 9.944008827209473 35.15727233886719 L 8.976993560791016 34.19025802612305 C 9.054391860961914 34.01889419555664 9.299909591674805 33.78708648681641 9.656479835510254 33.78708648681641 C 9.656554222106934 33.78708648681641 9.656606674194336 33.78708648681641 9.656682014465332 33.78708648681641 C 10.0316219329834 33.78718566894531 10.3169116973877 34.04358673095703 10.35045146942139 34.41062545776367 C 10.38575553894043 34.79702758789062 10.12760353088379 35.07806015014648 9.944008827209473 35.15727233886719 Z M 10.66745281219482 33.13660049438477 L 1.035297155380249 4.313451766967773 C 1.197911739349365 4.163388252258301 1.909151315689087 3.813366651535034 3.798791646957397 3.813366651535034 L 3.825011730194092 3.813366651535034 L 3.851191759109497 3.811996698379517 L 43.17399597167969 1.748638868331909 L 52.49749374389648 31.08384895324707 L 10.66745281219482 33.13660049438477 Z M 53.85927581787109 33.00369262695312 C 53.67566680908203 32.92446899414062 53.41751480102539 32.64340209960938 53.452880859375 32.2569580078125 C 53.48647308349609 31.8898868560791 53.77184295654297 31.63350677490234 54.1468505859375 31.63350677490234 C 54.50344467163086 31.63350677490234 54.74895095825195 31.86532783508301 54.82630920410156 32.03665924072266 L 53.85927581787109 33.00369262695312 Z M 44.03582000732422 0.9999967217445374 C 43.63425064086914 0.9999967217445374 43.26937103271484 0.7250467538833618 43.20515060424805 0.3740467429161072 C 43.14717102050781 0.05717673152685165 43.35419082641602 -0.2016532719135284 43.52592086791992 -0.2666732668876648 L 44.81689453125 0.3578299880027771 L 44.83906555175781 0.5007874965667725 C 44.75956726074219 0.7002835273742676 44.48215866088867 0.9999967217445374 44.03582000732422 0.9999967217445374 Z" stroke="none"/>
      <path d="M 42.45495223999023 2.787738800048828 L 3.903583526611328 4.810617446899414 L 3.851222991943359 4.813365936279297 L 3.798782348632812 4.813365936279297 C 3.110050201416016 4.813365936279297 2.624614715576172 4.862171173095703 2.292152404785156 4.919395446777344 L 11.37561416625977 32.10064315795898 L 51.1509895324707 30.14872169494629 L 42.45495223999023 2.787738800048828 M 44.03582000732422 0 C 44.20003509521484 8.0108642578125e-05 44.34866333007812 0.4910964965820312 43.8800048828125 0.6685371398925781 L 43.85086059570312 0.5768356323242188 C 43.85086059570312 0.1478652954101562 43.94567108154297 -4.57763671875e-05 44.03582000732422 0 Z M 43.8800048828125 0.6685371398925781 L 53.84399032592773 32.01897811889648 L 9.959293365478516 34.17255783081055 L 0 4.37049674987793 C 0 2.98780632019043 2.4359130859375 2.813365936279297 3.798782348632812 2.813365936279297 L 43.47344207763672 0.7315483093261719 C 43.64330291748047 0.7315483093261719 43.77664947509766 0.7076683044433594 43.8800048828125 0.6685371398925781 Z M 53.84399032592773 32.01897811889648 C 54.75259780883789 32.01897811889648 54.44972229003906 32.63351058959961 54.1468505859375 32.63351058959961 C 53.99542999267578 32.63351058959961 53.84399032592773 32.4798469543457 53.84399032592773 32.01897811889648 Z M 9.959293365478516 34.17255783081055 C 9.959293365478516 34.63351440429688 9.807880401611328 34.78709030151367 9.656429290771484 34.78709030151367 C 9.353584289550781 34.78709030151367 9.050762176513672 34.17255783081055 9.959293365478516 34.17255783081055 Z" stroke="none" fill="#682c0e"/>
    </g>
    <g id="Path_2" data-name="Path 2" transform="matrix(0.899, -0.438, 0.438, 0.899, 259.5, 394.847)" fill="#682c0e">
      <path d="M 36.65092086791992 29.60482788085938 L 2.617920398712158 29.60482788085938 C 1.765222668647766 29.60482788085938 1.064476728439331 28.95761871337891 1.004210114479065 28.13995742797852 L 8.057591438293457 1.554237365722656 L 41.36772155761719 1.362558364868164 C 42.03357696533203 1.362603664398193 42.71188735961914 1.383311867713928 43.16463851928711 1.532537817955017 C 43.43218612670898 1.62071967124939 43.48968124389648 1.695230722427368 43.50203704833984 1.789213418960571 L 38.28829956054688 27.8291072845459 L 38.26884078979492 27.92629814147949 L 38.26884078979492 28.02542686462402 C 38.26884078979492 28.89630699157715 37.54304122924805 29.60482788085938 36.65092086791992 29.60482788085938 Z M 7.003230571746826 0.9999977946281433 C 6.628500461578369 0.9999977946281433 6.370427131652832 0.73061203956604 6.300227165222168 0.5455611348152161 L 7.26115608215332 -0.4153681099414825 C 7.429419994354248 -0.3204993903636932 7.637707710266113 -0.05217901989817619 7.597160339355469 0.3118777871131897 C 7.565991878509521 0.5917873978614807 7.398263931274414 0.8346510529518127 7.162783145904541 0.9812296628952026 C 7.122083187103271 0.9913986921310425 7.068398475646973 0.9999977946281433 7.003230571746826 0.9999977946281433 Z" stroke="none"/>
      <path d="M 41.37153625488281 2.362560272216797 L 8.828048706054688 2.549827575683594 L 2.025463104248047 28.19024276733398 C 2.101356506347656 28.4296989440918 2.338237762451172 28.60482788085938 2.617919921875 28.60482788085938 L 36.65092086791992 28.60482788085938 C 36.99164199829102 28.60482788085938 37.26884078979492 28.34490776062012 37.26884078979492 28.02542877197266 L 37.26884078979492 27.82717704772949 L 37.30776214599609 27.63277816772461 L 42.36061096191406 2.39643669128418 C 42.13032913208008 2.376224517822266 41.81178283691406 2.362680435180664 41.37153625488281 2.362560272216797 M 7.003223419189453 -1.9073486328125e-06 C 7.183422088623047 -1.9073486328125e-06 7.287128448486328 0.1771965026855469 7.287128448486328 0.5586585998535156 C 6.492881774902344 0.5586585998535156 6.571239471435547 0.1287689208984375 6.648422241210938 0.1288242340087891 C 6.654697418212891 0.1288299560546875 6.660980224609375 0.1316757202148438 6.666770935058594 0.1378269195556641 C 6.796836853027344 0.04717254638671875 6.910205841064453 -1.9073486328125e-06 7.003223419189453 -1.9073486328125e-06 Z M 41.36553192138672 0.3625583648681641 C 42.81137084960938 0.3625583648681641 44.50542068481445 0.4468879699707031 44.50542068481445 1.871448516845703 L 39.26884078979492 28.02542877197266 C 39.26884078979492 29.44998741149902 38.09674835205078 30.60482788085938 36.65092086791992 30.60482788085938 L 2.617919921875 30.60482788085938 C 1.172080993652344 30.60482788085938 0 29.44998741149902 0 28.02542877197266 L 7.287128448486328 0.5586585998535156 L 41.36553192138672 0.3625583648681641 Z" stroke="none" fill="#682c0e"/>
    </g>
  </g>
</svg>
