<svg xmlns="http://www.w3.org/2000/svg" xmlns:xlink="http://www.w3.org/1999/xlink" width="44" height="30" viewBox="0 0 44 30">
  <defs>
    <clipPath id="clip-Web_1920_1">
      <rect width="44" height="30"/>
    </clipPath>
  </defs>
  <g id="Web_1920_1" data-name="Web 1920 – 1" clip-path="url(#clip-Web_1920_1)">
    <rect width="44" height="30" fill="rgba(255,255,255,0)"/>
    <path id="Icon_material-group" data-name="Icon material-group" d="M27.248,18.293a5.256,5.256,0,0,0,5.132-5.4,5.147,5.147,0,1,0-10.282,0A5.27,5.27,0,0,0,27.248,18.293Zm-13.732,0a5.256,5.256,0,0,0,5.132-5.4,5.256,5.256,0,0,0-5.132-5.4,5.27,5.27,0,0,0-5.15,5.4A5.27,5.27,0,0,0,13.516,18.293Zm0,3.6c-4,0-12.016,2.1-12.016,6.3v4.5H25.532v-4.5C25.532,24,17.515,21.891,13.516,21.891Zm13.732,0c-.5,0-1.064.036-1.665.09a7.672,7.672,0,0,1,3.382,6.206v4.5h10.3v-4.5C39.264,24,31.248,21.891,27.248,21.891Z" transform="translate(1.5 -4.684)" fill="#fc8621" stroke="#682c0e" stroke-width="1"/>
  </g>
</svg>
